{
  "asset": {
    "generator": "Khronos glTF Blender I/O v1.6.16",
    "version": "2.0"
  },
  "scene": 0,
  "scenes": [
    {
      "name": "Scene",
      "nodes": [
        0
      ]
    }
  ],
  "nodes": [
    {
      "mesh": 0,
      "name": "sphere_gltf"
    }
  ],
  "materials": [
    {
      "doubleSided": true,
      "name": "rock_08",
      "normalTexture": {
        "index": 0
      },
      "pbrMetallicRoughness": {
        "baseColorTexture": {
          "index": 1
        },
        "metallicFactor": 0,
        "metallicRoughnessTexture": {
          "index": 2
        }
      }
    }
  ],
  "meshes": [
    {
      "name": "Sphere.001",
      "primitives": [
        {
          "attributes": {
            "POSITION": 0,
            "NORMAL": 1,
            "TEXCOORD_0": 2
          },
          "indices": 3,
          "material": 0
        }
      ]
    }
  ],
  "textures": [
    {
      "sampler": 0,
      "source": 0
    },
    {
      "sampler": 0,
      "source": 1
    },
    {
      "sampler": 0,
      "source": 2
    }
  ],
  "images": [
    {
      "mimeType": "image/jpeg",
      "name": "rock_08_nor_gl_4k",
      "uri": "textures/rock_08_nor_gl_1k.jpg"
    },
    {
      "mimeType": "image/jpeg",
      "name": "rock_08_diff_4k",
      "uri": "textures/rock_08_diff_1k.jpg"
    },
    {
      "mimeType": "image/jpeg",
      "name": "rock_08_rough_4k",
      "uri": "textures/rock_08_rough_1k.jpg"
    }
  ],
  "accessors": [
    {
      "bufferView": 0,
      "componentType": 5126,
      "count": 53905,
      "max": [
        0.756385862827301,
        0.7597853541374207,
        0.7535181045532227
      ],
      "min": [
        -0.7563859820365906,
        -0.7591689825057983,
        -0.753512978553772
      ],
      "type": "VEC3"
    },
    {
      "bufferView": 1,
      "componentType": 5126,
      "count": 53905,
      "type": "VEC3"
    },
    {
      "bufferView": 2,
      "componentType": 5126,
      "count": 53905,
      "type": "VEC2"
    },
    {
      "bufferView": 3,
      "componentType": 5123,
      "count": 322170,
      "type": "SCALAR"
    }
  ],
  "bufferViews": [
    {
      "buffer": 0,
      "byteLength": 646860,
      "byteOffset": 0
    },
    {
      "buffer": 0,
      "byteLength": 646860,
      "byteOffset": 646860
    },
    {
      "buffer": 0,
      "byteLength": 431240,
      "byteOffset": 1293720
    },
    {
      "buffer": 0,
      "byteLength": 644340,
      "byteOffset": 1724960
    }
  ],
  "samplers": [
    {
      "magFilter": 9729,
      "minFilter": 9987
    }
  ],
  "buffers": [
    {
      "byteLength": 2369300,
      "uri": "rock_08.bin"
    }
  ]
}